<mxfile host="app.diagrams.net" modified="2023-06-01T08:46:36.995Z" agent="Mozilla/5.0 (X11; Linux x86_64; rv:108.0) Gecko/20100101 Firefox/108.0" etag="_biLbPXw3_wNweZaoWij" version="21.3.6" type="device">
  <diagram name="Page-1" id="e7e014a7-5840-1c2e-5031-d8a46d1fe8dd">
    <mxGraphModel dx="844" dy="427" grid="1" gridSize="10" guides="1" tooltips="1" connect="1" arrows="1" fold="1" page="1" pageScale="1" pageWidth="1169" pageHeight="826" background="none" math="0" shadow="0">
      <root>
        <mxCell id="0" />
        <mxCell id="1" parent="0" />
        <mxCell id="2" value="Функц. возможность 1" style="swimlane;whiteSpace=wrap" parent="1" vertex="1">
          <mxGeometry x="12" y="128" width="280" height="570" as="geometry" />
        </mxCell>
        <mxCell id="5" value="" style="ellipse;shape=startState;fillColor=#000000;strokeColor=#ff0000;" parent="2" vertex="1">
          <mxGeometry x="110" y="40" width="30" height="30" as="geometry" />
        </mxCell>
        <mxCell id="6" value="" style="edgeStyle=elbowEdgeStyle;elbow=horizontal;verticalAlign=bottom;endArrow=open;endSize=8;strokeColor=#FF0000;endFill=1;rounded=0" parent="2" source="5" target="7" edge="1">
          <mxGeometry x="100" y="40" as="geometry">
            <mxPoint x="115" y="110" as="targetPoint" />
          </mxGeometry>
        </mxCell>
        <mxCell id="7" value="Программа запускается" style="" parent="2" vertex="1">
          <mxGeometry x="60" y="110" width="130" height="50" as="geometry" />
        </mxCell>
        <mxCell id="-A9D6HdiChE-BO2MNw-I-43" style="edgeStyle=orthogonalEdgeStyle;rounded=0;orthogonalLoop=1;jettySize=auto;html=1;entryX=0.5;entryY=0;entryDx=0;entryDy=0;" edge="1" parent="2" source="8" target="10">
          <mxGeometry relative="1" as="geometry" />
        </mxCell>
        <mxCell id="8" value="Создается класс игры" style="" parent="2" vertex="1">
          <mxGeometry x="60" y="172" width="130" height="50" as="geometry" />
        </mxCell>
        <mxCell id="9" value="" style="endArrow=open;strokeColor=#FF0000;endFill=1;rounded=0" parent="2" source="7" target="8" edge="1">
          <mxGeometry relative="1" as="geometry" />
        </mxCell>
        <mxCell id="-A9D6HdiChE-BO2MNw-I-45" style="edgeStyle=orthogonalEdgeStyle;rounded=0;orthogonalLoop=1;jettySize=auto;html=1;entryX=0.5;entryY=0;entryDx=0;entryDy=0;" edge="1" parent="2" source="10" target="-A9D6HdiChE-BO2MNw-I-44">
          <mxGeometry relative="1" as="geometry" />
        </mxCell>
        <mxCell id="10" value="Вызывается метод&#xa;start_game&#xa;" style="" parent="2" vertex="1">
          <mxGeometry x="60" y="235" width="130" height="50" as="geometry" />
        </mxCell>
        <mxCell id="-A9D6HdiChE-BO2MNw-I-47" value="" style="edgeStyle=orthogonalEdgeStyle;rounded=0;orthogonalLoop=1;jettySize=auto;html=1;" edge="1" parent="2" source="-A9D6HdiChE-BO2MNw-I-44" target="-A9D6HdiChE-BO2MNw-I-46">
          <mxGeometry relative="1" as="geometry" />
        </mxCell>
        <mxCell id="-A9D6HdiChE-BO2MNw-I-44" value="Создается поле,&#xa;генерируется лабиринт&#xa;при помощи метода &#xa;create_labyrint&#xa;" style="" vertex="1" parent="2">
          <mxGeometry x="50" y="302" width="150" height="68" as="geometry" />
        </mxCell>
        <mxCell id="-A9D6HdiChE-BO2MNw-I-52" style="edgeStyle=orthogonalEdgeStyle;rounded=0;orthogonalLoop=1;jettySize=auto;html=1;entryX=0.5;entryY=0;entryDx=0;entryDy=0;" edge="1" parent="2" source="-A9D6HdiChE-BO2MNw-I-46" target="38">
          <mxGeometry relative="1" as="geometry" />
        </mxCell>
        <mxCell id="-A9D6HdiChE-BO2MNw-I-46" value="Отрисовывается&#xa;поле&#xa;" style="" vertex="1" parent="2">
          <mxGeometry x="60" y="382" width="130" height="50" as="geometry" />
        </mxCell>
        <mxCell id="38" value="" style="ellipse;shape=endState;fillColor=#000000;strokeColor=#ff0000" parent="2" vertex="1">
          <mxGeometry x="110" y="472" width="30" height="30" as="geometry" />
        </mxCell>
        <mxCell id="3" value="Функц. возможность 2" style="swimlane;whiteSpace=wrap" parent="1" vertex="1">
          <mxGeometry x="292.5" y="128" width="325" height="570" as="geometry" />
        </mxCell>
        <mxCell id="13" value="" style="ellipse;shape=startState;fillColor=#000000;strokeColor=#ff0000;" parent="3" vertex="1">
          <mxGeometry x="90" y="40" width="30" height="30" as="geometry" />
        </mxCell>
        <mxCell id="14" value="" style="edgeStyle=elbowEdgeStyle;elbow=horizontal;verticalAlign=bottom;endArrow=open;endSize=8;strokeColor=#FF0000;endFill=1;rounded=0" parent="3" source="13" target="15" edge="1">
          <mxGeometry x="70" y="20" as="geometry">
            <mxPoint x="85" y="90" as="targetPoint" />
          </mxGeometry>
        </mxCell>
        <mxCell id="15" value="Выводятся&#xa;возможные&#xa;варианты&#xa;сложности&#xa;" style="direction=west;align=center;verticalAlign=middle;" parent="3" vertex="1">
          <mxGeometry x="50" y="90" width="110" height="70" as="geometry" />
        </mxCell>
        <mxCell id="16" value="Запрашивается&#xa;решение&#xa;пользователя&#xa;" style="" parent="3" vertex="1">
          <mxGeometry x="50" y="182" width="110" height="50" as="geometry" />
        </mxCell>
        <mxCell id="17" value="" style="endArrow=open;strokeColor=#FF0000;endFill=1;rounded=0" parent="3" source="15" target="16" edge="1">
          <mxGeometry relative="1" as="geometry" />
        </mxCell>
        <mxCell id="-A9D6HdiChE-BO2MNw-I-57" value="&lt;div&gt;no&lt;/div&gt;" style="edgeStyle=orthogonalEdgeStyle;rounded=0;orthogonalLoop=1;jettySize=auto;html=1;" edge="1" parent="3" source="21" target="-A9D6HdiChE-BO2MNw-I-55">
          <mxGeometry x="-0.5" y="9" relative="1" as="geometry">
            <Array as="points">
              <mxPoint x="150" y="280" />
            </Array>
            <mxPoint as="offset" />
          </mxGeometry>
        </mxCell>
        <mxCell id="21" value="input - целое число&#xa;и &gt;= 1и &lt;= 3?" style="rhombus;fillColor=#33001A;strokeColor=#ff0000;" parent="3" vertex="1">
          <mxGeometry x="25" y="242" width="125" height="78" as="geometry" />
        </mxCell>
        <mxCell id="23" value="yes" style="edgeStyle=elbowEdgeStyle;elbow=horizontal;align=left;verticalAlign=top;endArrow=open;endSize=8;strokeColor=#FF0000;endFill=1;rounded=0;exitX=0.5;exitY=1;exitDx=0;exitDy=0;" parent="3" source="21" target="30" edge="1">
          <mxGeometry x="-1" relative="1" as="geometry">
            <mxPoint x="220" y="305" as="targetPoint" />
            <Array as="points">
              <mxPoint x="108" y="320" />
            </Array>
            <mxPoint as="offset" />
          </mxGeometry>
        </mxCell>
        <mxCell id="24" value="" style="endArrow=open;strokeColor=#FF0000;endFill=1;rounded=0;entryX=0.5;entryY=0;entryDx=0;entryDy=0;" parent="3" source="16" target="21" edge="1">
          <mxGeometry relative="1" as="geometry" />
        </mxCell>
        <mxCell id="-A9D6HdiChE-BO2MNw-I-61" style="edgeStyle=orthogonalEdgeStyle;rounded=0;orthogonalLoop=1;jettySize=auto;html=1;entryX=0.5;entryY=0;entryDx=0;entryDy=0;" edge="1" parent="3" source="30" target="-A9D6HdiChE-BO2MNw-I-59">
          <mxGeometry relative="1" as="geometry" />
        </mxCell>
        <mxCell id="30" value="Установить соответствующие&#xa;показатели ширины и высоты поля&#xa;" style="whiteSpace=wrap;" parent="3" vertex="1">
          <mxGeometry x="35" y="362" width="167.5" height="68" as="geometry" />
        </mxCell>
        <mxCell id="-A9D6HdiChE-BO2MNw-I-58" style="edgeStyle=orthogonalEdgeStyle;rounded=0;orthogonalLoop=1;jettySize=auto;html=1;entryX=1;entryY=0.414;entryDx=0;entryDy=0;entryPerimeter=0;" edge="1" parent="3" source="-A9D6HdiChE-BO2MNw-I-55" target="16">
          <mxGeometry relative="1" as="geometry">
            <mxPoint x="225" y="202" as="targetPoint" />
            <Array as="points">
              <mxPoint x="225" y="203" />
            </Array>
          </mxGeometry>
        </mxCell>
        <mxCell id="-A9D6HdiChE-BO2MNw-I-55" value="Вывести информацию об ошибке" style="whiteSpace=wrap;" vertex="1" parent="3">
          <mxGeometry x="170" y="256" width="110" height="50" as="geometry" />
        </mxCell>
        <mxCell id="-A9D6HdiChE-BO2MNw-I-59" value="" style="ellipse;shape=endState;fillColor=#000000;strokeColor=#ff0000" vertex="1" parent="3">
          <mxGeometry x="103.75" y="472" width="30" height="30" as="geometry" />
        </mxCell>
        <mxCell id="4" value="Функц. возможность 3" style="swimlane;whiteSpace=wrap" parent="1" vertex="1">
          <mxGeometry x="617.5" y="128" width="540" height="570" as="geometry" />
        </mxCell>
        <mxCell id="-A9D6HdiChE-BO2MNw-I-62" value="" style="ellipse;shape=startState;fillColor=#000000;strokeColor=#ff0000;" vertex="1" parent="4">
          <mxGeometry x="262.5" y="40" width="30" height="30" as="geometry" />
        </mxCell>
        <mxCell id="-A9D6HdiChE-BO2MNw-I-63" value="" style="edgeStyle=elbowEdgeStyle;elbow=horizontal;verticalAlign=bottom;endArrow=open;endSize=8;strokeColor=#FF0000;endFill=1;rounded=0" edge="1" parent="4" source="-A9D6HdiChE-BO2MNw-I-62">
          <mxGeometry x="240.5" y="-88" as="geometry">
            <mxPoint x="277.5" y="90" as="targetPoint" />
          </mxGeometry>
        </mxCell>
        <mxCell id="-A9D6HdiChE-BO2MNw-I-66" value="" style="edgeStyle=orthogonalEdgeStyle;rounded=0;orthogonalLoop=1;jettySize=auto;html=1;" edge="1" parent="4" source="-A9D6HdiChE-BO2MNw-I-64" target="-A9D6HdiChE-BO2MNw-I-65">
          <mxGeometry relative="1" as="geometry" />
        </mxCell>
        <mxCell id="-A9D6HdiChE-BO2MNw-I-64" value="Нажатие на клавишу" style="" vertex="1" parent="4">
          <mxGeometry x="212.5" y="92" width="130" height="50" as="geometry" />
        </mxCell>
        <mxCell id="-A9D6HdiChE-BO2MNw-I-74" style="edgeStyle=orthogonalEdgeStyle;rounded=0;orthogonalLoop=1;jettySize=auto;html=1;entryX=0.5;entryY=0;entryDx=0;entryDy=0;" edge="1" parent="4" source="-A9D6HdiChE-BO2MNw-I-65" target="-A9D6HdiChE-BO2MNw-I-67">
          <mxGeometry relative="1" as="geometry">
            <Array as="points">
              <mxPoint x="71" y="177" />
            </Array>
          </mxGeometry>
        </mxCell>
        <mxCell id="-A9D6HdiChE-BO2MNw-I-77" style="edgeStyle=orthogonalEdgeStyle;rounded=0;orthogonalLoop=1;jettySize=auto;html=1;entryX=0.511;entryY=-0.069;entryDx=0;entryDy=0;entryPerimeter=0;" edge="1" parent="4" source="-A9D6HdiChE-BO2MNw-I-65" target="-A9D6HdiChE-BO2MNw-I-73">
          <mxGeometry relative="1" as="geometry">
            <mxPoint x="182.5" y="212" as="targetPoint" />
            <Array as="points">
              <mxPoint x="173" y="177" />
              <mxPoint x="173" y="219" />
            </Array>
          </mxGeometry>
        </mxCell>
        <mxCell id="-A9D6HdiChE-BO2MNw-I-80" style="edgeStyle=orthogonalEdgeStyle;rounded=0;orthogonalLoop=1;jettySize=auto;html=1;entryX=0.5;entryY=0;entryDx=0;entryDy=0;" edge="1" parent="4" source="-A9D6HdiChE-BO2MNw-I-65" target="-A9D6HdiChE-BO2MNw-I-72">
          <mxGeometry relative="1" as="geometry">
            <Array as="points">
              <mxPoint x="278" y="212" />
              <mxPoint x="278" y="212" />
            </Array>
          </mxGeometry>
        </mxCell>
        <mxCell id="-A9D6HdiChE-BO2MNw-I-83" style="edgeStyle=orthogonalEdgeStyle;rounded=0;orthogonalLoop=1;jettySize=auto;html=1;entryX=0.553;entryY=-0.034;entryDx=0;entryDy=0;entryPerimeter=0;" edge="1" parent="4" source="-A9D6HdiChE-BO2MNw-I-65" target="-A9D6HdiChE-BO2MNw-I-81">
          <mxGeometry relative="1" as="geometry">
            <Array as="points">
              <mxPoint x="496" y="176" />
            </Array>
          </mxGeometry>
        </mxCell>
        <mxCell id="-A9D6HdiChE-BO2MNw-I-84" style="edgeStyle=orthogonalEdgeStyle;rounded=0;orthogonalLoop=1;jettySize=auto;html=1;entryX=0.528;entryY=-0.062;entryDx=0;entryDy=0;entryPerimeter=0;" edge="1" parent="4" source="-A9D6HdiChE-BO2MNw-I-65" target="-A9D6HdiChE-BO2MNw-I-71">
          <mxGeometry relative="1" as="geometry">
            <mxPoint x="382.5" y="212" as="targetPoint" />
            <Array as="points">
              <mxPoint x="383" y="176" />
              <mxPoint x="383" y="219" />
            </Array>
          </mxGeometry>
        </mxCell>
        <mxCell id="-A9D6HdiChE-BO2MNw-I-65" value="Вызов метода key_pressed&#xa;" style="whiteSpace=wrap;" vertex="1" parent="4">
          <mxGeometry x="212.5" y="152" width="130" height="48" as="geometry" />
        </mxCell>
        <mxCell id="-A9D6HdiChE-BO2MNw-I-97" value="" style="edgeStyle=orthogonalEdgeStyle;rounded=0;orthogonalLoop=1;jettySize=auto;html=1;" edge="1" parent="4" source="-A9D6HdiChE-BO2MNw-I-67" target="-A9D6HdiChE-BO2MNw-I-86">
          <mxGeometry relative="1" as="geometry">
            <Array as="points">
              <mxPoint x="63" y="272" />
              <mxPoint x="63" y="272" />
            </Array>
          </mxGeometry>
        </mxCell>
        <mxCell id="-A9D6HdiChE-BO2MNw-I-67" value="Нажата клавиша движения" style="whiteSpace=wrap;" vertex="1" parent="4">
          <mxGeometry x="22.5" y="222" width="97.5" height="50" as="geometry" />
        </mxCell>
        <mxCell id="-A9D6HdiChE-BO2MNw-I-120" style="edgeStyle=orthogonalEdgeStyle;rounded=0;orthogonalLoop=1;jettySize=auto;html=1;entryX=0.5;entryY=0;entryDx=0;entryDy=0;" edge="1" parent="4" source="-A9D6HdiChE-BO2MNw-I-73" target="-A9D6HdiChE-BO2MNw-I-98">
          <mxGeometry relative="1" as="geometry" />
        </mxCell>
        <mxCell id="-A9D6HdiChE-BO2MNw-I-73" value="Нажата клавиша E" style="whiteSpace=wrap;" vertex="1" parent="4">
          <mxGeometry x="122.5" y="222" width="97.5" height="50" as="geometry" />
        </mxCell>
        <mxCell id="-A9D6HdiChE-BO2MNw-I-116" value="" style="edgeStyle=orthogonalEdgeStyle;rounded=0;orthogonalLoop=1;jettySize=auto;html=1;" edge="1" parent="4" source="-A9D6HdiChE-BO2MNw-I-72" target="-A9D6HdiChE-BO2MNw-I-100">
          <mxGeometry relative="1" as="geometry" />
        </mxCell>
        <mxCell id="-A9D6HdiChE-BO2MNw-I-72" value="Нажата клавиша T" style="whiteSpace=wrap;" vertex="1" parent="4">
          <mxGeometry x="228.75" y="222" width="97.5" height="50" as="geometry" />
        </mxCell>
        <mxCell id="-A9D6HdiChE-BO2MNw-I-71" value="Нажата клавиша R" style="whiteSpace=wrap;" vertex="1" parent="4">
          <mxGeometry x="332.5" y="222" width="97.5" height="50" as="geometry" />
        </mxCell>
        <mxCell id="-A9D6HdiChE-BO2MNw-I-96" value="" style="edgeStyle=orthogonalEdgeStyle;rounded=0;orthogonalLoop=1;jettySize=auto;html=1;" edge="1" parent="4" source="-A9D6HdiChE-BO2MNw-I-81" target="-A9D6HdiChE-BO2MNw-I-90">
          <mxGeometry relative="1" as="geometry" />
        </mxCell>
        <mxCell id="-A9D6HdiChE-BO2MNw-I-81" value="Нажата клавиша C" style="whiteSpace=wrap;" vertex="1" parent="4">
          <mxGeometry x="442.5" y="222" width="97.5" height="50" as="geometry" />
        </mxCell>
        <mxCell id="-A9D6HdiChE-BO2MNw-I-86" value="Вызван метод click_{RIGHT | DOWN | UP | LEFT}&#xa;" style="whiteSpace=wrap;" vertex="1" parent="4">
          <mxGeometry y="282" width="120" height="58" as="geometry" />
        </mxCell>
        <mxCell id="-A9D6HdiChE-BO2MNw-I-109" style="edgeStyle=orthogonalEdgeStyle;rounded=0;orthogonalLoop=1;jettySize=auto;html=1;entryX=1;entryY=0.6;entryDx=0;entryDy=0;entryPerimeter=0;exitX=0.5;exitY=1;exitDx=0;exitDy=0;" edge="1" parent="4" source="-A9D6HdiChE-BO2MNw-I-71" target="-A9D6HdiChE-BO2MNw-I-106">
          <mxGeometry relative="1" as="geometry">
            <mxPoint x="381.5" y="332" as="sourcePoint" />
            <Array as="points">
              <mxPoint x="381" y="442" />
            </Array>
          </mxGeometry>
        </mxCell>
        <mxCell id="-A9D6HdiChE-BO2MNw-I-90" value="Координаты игрока устанавливаются на начальные" style="whiteSpace=wrap;" vertex="1" parent="4">
          <mxGeometry x="420" y="282" width="120" height="50" as="geometry" />
        </mxCell>
        <mxCell id="-A9D6HdiChE-BO2MNw-I-105" value="" style="edgeStyle=orthogonalEdgeStyle;rounded=0;orthogonalLoop=1;jettySize=auto;html=1;" edge="1" parent="4" source="-A9D6HdiChE-BO2MNw-I-98" target="-A9D6HdiChE-BO2MNw-I-104">
          <mxGeometry relative="1" as="geometry">
            <Array as="points">
              <mxPoint x="171" y="422" />
              <mxPoint x="173" y="422" />
            </Array>
          </mxGeometry>
        </mxCell>
        <mxCell id="-A9D6HdiChE-BO2MNw-I-98" value="Игра заканчивается" style="whiteSpace=wrap;" vertex="1" parent="4">
          <mxGeometry x="122.5" y="352" width="97.5" height="50" as="geometry" />
        </mxCell>
        <mxCell id="-A9D6HdiChE-BO2MNw-I-100" value="Включается след за игроком" style="whiteSpace=wrap;" vertex="1" parent="4">
          <mxGeometry x="228.75" y="290" width="97.5" height="50" as="geometry" />
        </mxCell>
        <mxCell id="-A9D6HdiChE-BO2MNw-I-108" value="&lt;div&gt;да&lt;br&gt;&lt;/div&gt;" style="edgeStyle=orthogonalEdgeStyle;rounded=0;orthogonalLoop=1;jettySize=auto;html=1;" edge="1" parent="4" source="-A9D6HdiChE-BO2MNw-I-104" target="-A9D6HdiChE-BO2MNw-I-106">
          <mxGeometry x="-0.9055" y="14" relative="1" as="geometry">
            <Array as="points">
              <mxPoint x="223" y="436" />
              <mxPoint x="223" y="436" />
            </Array>
            <mxPoint as="offset" />
          </mxGeometry>
        </mxCell>
        <mxCell id="-A9D6HdiChE-BO2MNw-I-113" value="нет" style="edgeStyle=orthogonalEdgeStyle;rounded=0;orthogonalLoop=1;jettySize=auto;html=1;" edge="1" parent="4" source="-A9D6HdiChE-BO2MNw-I-104" target="-A9D6HdiChE-BO2MNw-I-110">
          <mxGeometry x="0.7059" y="-19" relative="1" as="geometry">
            <mxPoint as="offset" />
          </mxGeometry>
        </mxCell>
        <mxCell id="-A9D6HdiChE-BO2MNw-I-104" value="Продолжить игру?" style="rhombus;fillColor=#33001A;strokeColor=#ff0000;" vertex="1" parent="4">
          <mxGeometry x="120.63" y="412" width="101.25" height="48" as="geometry" />
        </mxCell>
        <mxCell id="-A9D6HdiChE-BO2MNw-I-106" value="Начинается новая игра" style="whiteSpace=wrap;" vertex="1" parent="4">
          <mxGeometry x="235" y="412" width="97.5" height="50" as="geometry" />
        </mxCell>
        <mxCell id="-A9D6HdiChE-BO2MNw-I-115" value="" style="edgeStyle=orthogonalEdgeStyle;rounded=0;orthogonalLoop=1;jettySize=auto;html=1;entryX=0.5;entryY=0;entryDx=0;entryDy=0;" edge="1" parent="4" source="-A9D6HdiChE-BO2MNw-I-110" target="-A9D6HdiChE-BO2MNw-I-114">
          <mxGeometry relative="1" as="geometry" />
        </mxCell>
        <mxCell id="-A9D6HdiChE-BO2MNw-I-110" value="Программа закрывактся" style="whiteSpace=wrap;" vertex="1" parent="4">
          <mxGeometry x="122.50999999999999" y="472" width="97.5" height="50" as="geometry" />
        </mxCell>
        <mxCell id="-A9D6HdiChE-BO2MNw-I-114" value="" style="ellipse;shape=endState;fillColor=#000000;strokeColor=#ff0000" vertex="1" parent="4">
          <mxGeometry x="156.26" y="540" width="30" height="30" as="geometry" />
        </mxCell>
      </root>
    </mxGraphModel>
  </diagram>
</mxfile>
